<?xml version="1.0" encoding="utf-8"?>
<!-- Generator: Adobe Illustrator 16.0.4, SVG Export Plug-In . SVG Version: 6.00 Build 0)  -->
<!DOCTYPE svg PUBLIC "-//W3C//DTD SVG 1.1//EN" "http://www.w3.org/Graphics/SVG/1.1/DTD/svg11.dtd">
<svg version="1.1" id="Layer_1" xmlns="http://www.w3.org/2000/svg" xmlns:xlink="http://www.w3.org/1999/xlink" x="0px" y="0px"
	 width="189px" height="32.063px" viewBox="0 0 189 32.063" enable-background="new 0 0 189 32.063" xml:space="preserve">
<g>
	<path fill="#ffffff" d="M21.479,31.446l-3.969-13.893l-4.014,13.893H7.145L0,7.762h7.101l3.572,14.069l3.793-14.069h6.042
		l3.881,14.069l3.617-14.069h7.057l-7.145,23.684H21.479z"/>
	<path fill="#ffffff" d="M56.82,24.565c-2.293,4.939-6.218,7.454-11.511,7.454c-3.617,0-6.527-1.235-8.953-3.793
		c-2.293-2.426-3.484-5.425-3.484-8.776c0-3.308,1.279-6.351,3.617-8.688c2.381-2.382,5.513-3.705,8.732-3.705
		c7.542,0,12.702,5.425,12.702,14.245c0,0.221,0,0.486,0,0.75H40.061c0.618,2.514,2.426,3.838,5.469,3.838
		c1.412,0,2.558-0.397,3.617-1.324H56.82z M50.911,17.112c-0.838-2.426-2.823-3.749-5.601-3.749c-2.911,0-4.984,1.5-5.469,3.749
		H50.911z"/>
	<path fill="#ffffff" d="M65.272,31.446h-6.748V0.088h7.012v10.32c1.456-1.896,3.617-2.999,6.616-2.999s5.689,1.103,7.895,3.264
		c2.47,2.381,3.793,5.425,3.793,8.821c0,3.704-1.412,6.88-4.146,9.306c-2.073,1.853-4.542,2.778-7.409,2.778
		c-2.823,0-4.939-0.749-7.013-2.778V31.446z M70.741,25.271c3.573,0,6.13-2.514,6.13-5.821c0-3.176-2.602-5.866-5.91-5.866
		c-3.264,0-5.733,2.558-5.733,5.954C65.228,22.802,67.742,25.271,70.741,25.271z"/>
	<path fill="#ffffff" d="M90.113,24.39c0,0.088,0,0.176,0,0.221c0,1.322,1.059,2.249,2.559,2.249c1.499,0,2.381-0.75,2.381-2.073
		c0-1.94-1.896-1.852-4.852-2.778c-4.101-1.278-6.086-3.483-6.086-7.057c0-4.631,3.396-7.895,9.041-7.895
		c4.896,0,8.027,2.779,8.292,7.277h-6.308c-0.264-1.544-0.838-2.205-2.072-2.205c-1.367,0-2.161,0.793-2.161,1.94
		c0,1.632,1.456,2.029,3.882,2.69c4.851,1.323,7.276,3.175,7.276,7.101c0,4.764-3.749,8.203-9.481,8.203
		c-5.293,0-8.557-2.867-9.042-7.674H90.113z"/>
	<path fill="#ffffff" d="M101.866,12.967V7.762h2.999V0.088h7.057v7.674h3.131v5.205h-3.131v18.479h-7.057V12.967H101.866z"/>
	<path fill="#ffffff" d="M132.605,28.8c-2.072,2.029-4.189,2.778-7.012,2.778c-2.867,0-5.337-0.926-7.41-2.778
		c-2.734-2.426-4.145-5.602-4.145-9.306c0-3.396,1.322-6.439,3.792-8.821c2.206-2.161,4.896-3.264,7.895-3.264
		c2.866,0,5.072,0.97,6.659,2.999V7.762h6.969v23.684h-6.748V28.8z M127.137,25.271c3,0,5.514-2.47,5.514-5.733
		c0-3.396-2.514-5.954-5.777-5.954c-3.309,0-5.866,2.69-5.866,5.866C121.007,22.758,123.564,25.271,127.137,25.271z"/>
	<path fill="#ffffff" d="M147.406,7.762v3.22c1.147-2.381,3.132-3.572,5.955-3.572v6.439c-0.045,0-0.133,0-0.177,0
		c-4.411,0-5.337,1.5-5.337,5.865v11.732h-7.057V7.762H147.406z"/>
	<path fill="#ffffff" d="M160.048,24.39c0,0.088,0,0.176,0,0.221c0,1.322,1.059,2.249,2.558,2.249c1.5,0,2.382-0.75,2.382-2.073
		c0-1.94-1.896-1.852-4.851-2.778c-4.102-1.278-6.087-3.483-6.087-7.057c0-4.631,3.396-7.895,9.041-7.895
		c4.896,0,8.026,2.779,8.292,7.277h-6.307c-0.266-1.544-0.838-2.205-2.073-2.205c-1.367,0-2.161,0.793-2.161,1.94
		c0,1.632,1.455,2.029,3.881,2.69c4.852,1.323,7.277,3.175,7.277,7.101c0,4.764-3.749,8.203-9.482,8.203
		c-5.293,0-8.557-2.867-9.041-7.674H160.048z"/>
</g>
<path fill="#00A2A0" d="M177.932,15.525l-3.471-2.447l3.507-4.274L173,7.452l1.278-3.981l4.749,1.68V0h3.945v5.15l4.749-1.68
	L189,7.452l-4.968,1.352l3.47,4.274l-3.434,2.447L181,11.032L177.932,15.525z"/>
</svg>
