<?xml version="1.0" encoding="utf-8"?>
<!-- Generator: Adobe Illustrator 16.0.4, SVG Export Plug-In . SVG Version: 6.00 Build 0)  -->
<!DOCTYPE svg PUBLIC "-//W3C//DTD SVG 1.1//EN" "http://www.w3.org/Graphics/SVG/1.1/DTD/svg11.dtd">
<svg version="1.1" id="Layer_1" xmlns="http://www.w3.org/2000/svg" xmlns:xlink="http://www.w3.org/1999/xlink" x="0px" y="0px"
	 width="38px" height="30.878px" viewBox="0 0 38 30.878" enable-background="new 0 0 38 30.878" xml:space="preserve">
<path fill="#00A2A0" d="M2.88,13.21c-0.901-0.9-1.77-1.77-2.64-2.639C9.6,0.667,27.042-0.336,37.76,10.529
	c-0.878,0.876-1.755,1.753-2.661,2.658c-4.457-4.303-9.824-6.617-16.095-6.618C12.744,6.567,7.387,8.872,2.88,13.21z"/>
<path fill="#00A2A0" d="M8.27,18.577c-0.894-0.897-1.768-1.776-2.643-2.656c7.019-7.345,19.536-7.489,26.751-0.004
	c-0.875,0.877-1.751,1.753-2.651,2.653c-2.975-2.859-6.551-4.403-10.737-4.399C14.817,14.173,11.253,15.714,8.27,18.577z"/>
<path fill="#00A2A0" d="M13.594,23.98c-0.583-0.589-1.164-1.177-1.752-1.76c-0.293-0.291-0.6-0.567-0.899-0.846
	c3.939-4.286,11.536-4.754,16.047-0.111c-0.882,0.884-1.765,1.767-2.646,2.65C21.413,21.032,16.568,21.039,13.594,23.98z"/>
<path fill="#00A2A0" d="M21.662,26.673c-0.902,0.895-1.779,1.769-2.628,2.612c-0.871-0.869-1.762-1.76-2.654-2.65
	C17.8,25.194,20.162,25.192,21.662,26.673z"/>
</svg>
