<?xml version="1.0" encoding="utf-8"?>
<!-- Generator: Adobe Illustrator 16.0.4, SVG Export Plug-In . SVG Version: 6.00 Build 0)  -->
<!DOCTYPE svg PUBLIC "-//W3C//DTD SVG 1.1//EN" "http://www.w3.org/Graphics/SVG/1.1/DTD/svg11.dtd">
<svg version="1.1" id="Layer_1" xmlns="http://www.w3.org/2000/svg" xmlns:xlink="http://www.w3.org/1999/xlink" x="0px" y="0px"
	 width="457.185px" height="323.269px" viewBox="0 0 457.185 323.269" enable-background="new 0 0 457.185 323.269"
	 xml:space="preserve">
<path fill-rule="evenodd" clip-rule="evenodd" fill="#00A2A0" d="M32.163,127.373C21.189,116.403,10.595,105.814,0,95.22
	C114.044-25.464,326.585-37.685,457.185,94.706c-10.692,10.678-21.385,21.358-32.422,32.381
	C370.456,74.646,305.053,46.45,228.638,46.44C152.367,46.427,87.083,74.507,32.163,127.373z"/>
<path fill-rule="evenodd" clip-rule="evenodd" fill="#00A2A0" d="M97.836,192.774c-10.892-10.947-21.542-21.652-32.203-32.368
	c85.533-89.497,238.054-91.26,325.984-0.059c-10.678,10.687-21.352,21.369-32.324,32.349
	c-36.234-34.849-79.818-53.658-130.833-53.626C177.624,139.104,134.191,157.885,97.836,192.774z"/>
<path fill-rule="evenodd" clip-rule="evenodd" fill="#00A2A0" d="M162.715,258.596c-7.11-7.147-14.188-14.341-21.354-21.437
	c-3.573-3.537-7.314-6.901-10.953-10.318c48.003-52.195,140.571-57.894,195.535-1.346c-10.751,10.771-21.499,21.539-32.253,32.312
	C257.992,222.69,198.962,222.753,162.715,258.596z"/>
<path fill-rule="evenodd" clip-rule="evenodd" fill="#00A2A0" d="M261.035,291.411c-10.99,10.934-21.693,21.583-32.022,31.857
	c-10.618-10.604-21.479-21.45-32.345-32.3C213.969,273.401,242.759,273.382,261.035,291.411z"/>
</svg>
